<svg width="153" height="53" viewBox="0 0 153 53" fill="none" xmlns="http://www.w3.org/2000/svg">
<g clip-path="url(#clip0_267_2)">
<path fill-rule="evenodd" clip-rule="evenodd" d="M1.76103 11.8814L23.8568 11.9015L15.9748 52.944L10.6867 52.929L16.8879 20.5446L16.2658 19.6412L0 19.576L1.76103 11.8814Z" fill="black"/>
<path fill-rule="evenodd" clip-rule="evenodd" d="M20.4196 43.4626L28.3418 2.53552L50.3975 2.58576L48.6415 10.1196L33.0379 10.2953L32.0345 10.9227L25.6927 43.5931H20.3945L20.4196 43.4626Z" fill="#EE0000"/>
<path fill-rule="evenodd" clip-rule="evenodd" d="M20.4151 43.5128L25.7133 43.5078L23.8318 52.9942L18.5537 52.964L20.4151 43.5128Z" fill="black"/>
<path fill-rule="evenodd" clip-rule="evenodd" d="M57.3558 23.4759L51.1646 52.6128H57.7873L60.1604 41.4549H61.2793C62.3329 41.4549 63.1707 41.7662 63.7778 42.3936C64.3899 43.0009 64.8114 43.9044 65.0572 45.114L66.6427 52.6128H73.6668L71.6348 44.2005C71.412 43.1067 70.9549 42.0741 70.2952 41.1739C69.7545 40.4562 69.0094 39.9191 68.1579 39.633C68.1428 39.633 68.1077 39.628 68.1177 39.5978V39.5828C68.1177 39.5677 68.1328 39.5527 68.1478 39.5477H68.1579C69.3319 39.382 70.4357 39.0708 71.4592 38.609C72.5028 38.1472 73.4109 37.555 74.1785 36.8222C74.9525 36.089 75.5747 35.2107 76.0098 34.2373C76.4563 33.2335 76.6821 32.1191 76.6821 30.8894C76.6821 29.9006 76.5115 28.957 76.1704 28.0636C75.8247 27.1586 75.2672 26.3496 74.5448 25.7045C73.7046 24.9609 72.7136 24.4079 71.6398 24.0833C70.2411 23.6453 68.7803 23.4384 67.315 23.471L57.3558 23.4759ZM98.5471 23.4759L92.396 52.6128H99.0138L105.17 23.4759H98.5471ZM126.332 23.4759L120.176 52.6128H126.332L130.045 35.216C130.196 34.6087 130.311 33.9913 130.396 33.369C130.472 32.7466 130.547 32.1844 130.617 31.6825H130.738C130.785 31.8705 130.845 32.0549 130.918 32.2346L131.184 32.8871L131.47 33.5296C131.565 33.7504 131.651 33.9411 131.731 34.1017L140.852 52.6128H146.843L152.994 23.4759H146.803L143.105 40.8678L142.965 41.5202L142.844 42.2731C142.767 42.7505 142.711 43.2312 142.679 43.7137H142.598C142.547 43.5177 142.48 43.3263 142.398 43.1414C142.314 42.919 142.218 42.7012 142.112 42.489C142.02 42.2682 141.918 42.0521 141.806 41.8415C141.725 41.6586 141.643 41.4761 141.56 41.2943L132.83 23.4759H126.332ZM62.945 28.3949H65.6844C67.029 28.3949 68.0274 28.7111 68.6947 29.3486C69.357 29.9709 69.6881 30.8442 69.6881 31.9685C69.6875 32.5667 69.5606 33.158 69.316 33.7037C69.0713 34.2495 68.7143 34.7375 68.2682 35.1358C67.7332 35.5777 67.1207 35.9163 66.462 36.1345C65.6192 36.3952 64.7401 36.5189 63.8581 36.5009H61.199L62.945 28.3949Z" fill="black"/>
<path fill-rule="evenodd" clip-rule="evenodd" d="M104.292 0.000793457L104.302 0.0108265V0.00577167L104.292 0.000793457ZM105.807 0.181464V0.216618L105.817 0.191497L105.807 0.181464ZM57.1953 2.50032V10.3304C57.1953 11.003 57.4312 11.5852 57.9028 12.0671C58.1288 12.2966 58.3994 12.4773 58.698 12.5982C58.9966 12.7191 59.3167 12.7774 59.6387 12.7698H65.1777C65.4965 12.7759 65.8132 12.7167 66.1083 12.5958C66.4033 12.475 66.6706 12.295 66.8936 12.0671C67.1271 11.8427 67.3121 11.5728 67.4372 11.2741C67.5624 10.9754 67.6249 10.6543 67.6211 10.3304V2.50032H65.3032V10.3304C65.3032 10.4107 65.263 10.4508 65.1777 10.4508H59.6387C59.5584 10.4508 59.5133 10.4107 59.5133 10.3304V2.50032H57.1953ZM80.5455 2.50032V12.7748H82.8634V4.94469C82.8634 4.86439 82.9036 4.81924 82.9888 4.81924H88.5278C88.6131 4.81924 88.6533 4.85937 88.6533 4.94469V12.7748H90.9712V4.94469C90.9759 4.62369 90.9137 4.30528 90.7884 4.00971C90.6631 3.71414 90.4776 3.44794 90.2437 3.22813C90.024 2.99414 89.7579 2.8086 89.4625 2.68328C89.167 2.55797 88.8487 2.49562 88.5278 2.50032H80.5455ZM103.86 2.50032V12.7748H106.178V2.50032H103.86ZM119.053 2.50032V12.7748H121.371V4.94469C121.371 4.86439 121.411 4.81924 121.496 4.81924H127.035C127.115 4.81924 127.16 4.85937 127.16 4.94469V12.7748H129.478V4.94469C129.483 4.62369 129.421 4.30528 129.296 4.00971C129.17 3.71414 128.985 3.44794 128.751 3.22813C128.531 2.99439 128.265 2.80896 127.969 2.68367C127.674 2.55837 127.356 2.49593 127.035 2.50032H119.053ZM144.44 2.50032C144.116 2.49648 143.795 2.5591 143.496 2.68428C143.198 2.80946 142.928 2.99455 142.704 3.22813C142.476 3.45122 142.296 3.71856 142.175 4.01377C142.054 4.30897 141.995 4.62577 142.001 4.94469V10.3304C141.995 10.6531 142.054 10.9737 142.175 11.273C142.295 11.5723 142.475 11.8443 142.703 12.0725C142.931 12.3007 143.203 12.4805 143.502 12.6012C143.802 12.7219 144.122 12.7809 144.445 12.7748H150.099V14.401C150.099 14.4713 150.064 14.5065 149.999 14.5065H143.712V16.8454H149.994C150.315 16.8501 150.633 16.7878 150.928 16.6625C151.224 16.5372 151.49 16.3516 151.71 16.1176C151.939 15.8954 152.121 15.6284 152.244 15.3331C152.366 15.0379 152.427 14.7206 152.422 14.401V4.94469C152.427 4.62505 152.366 4.30786 152.244 4.01262C152.121 3.71737 151.939 3.45036 151.71 3.22813C151.49 2.99414 151.224 2.8086 150.928 2.68328C150.633 2.55797 150.315 2.49562 149.994 2.50032H144.44ZM144.44 4.81924H149.994C150.064 4.81924 150.099 4.85937 150.099 4.94469V10.3304C150.099 10.4107 150.064 10.4508 149.999 10.4508H144.44C144.354 10.4508 144.314 10.4107 144.314 10.3304V4.94469C144.314 4.86439 144.354 4.81924 144.44 4.81924Z" fill="#EE0000"/>
</g>
<defs>
<clipPath id="clip0_267_2">
<rect width="153" height="53" fill="white"/>
</clipPath>
</defs>
</svg>
