<svg width="108" height="108" viewBox="0 0 108 108" fill="none" xmlns="http://www.w3.org/2000/svg">
<path d="M82.1728 18.9702C80.9022 18.9702 79.6601 19.347 78.6036 20.053C77.5471 20.7589 76.7236 21.7623 76.2374 22.9362C75.7511 24.1101 75.6239 25.4019 75.8718 26.6481C76.1197 27.8943 76.7316 29.0391 77.63 29.9375C78.5285 30.836 79.6732 31.4479 80.9195 31.6958C82.1657 31.9437 83.4575 31.8165 84.6314 31.3302C85.8053 30.8439 86.8087 30.0205 87.5146 28.964C88.2205 27.9075 88.5973 26.6654 88.5973 25.3947C88.5973 23.6909 87.9205 22.0568 86.7156 20.8519C85.5108 19.6471 83.8767 18.9702 82.1728 18.9702ZM106.8 31.9263C106.696 27.4843 105.864 23.0894 104.337 18.9167C102.976 15.3465 100.857 12.1136 98.127 9.44058C95.4759 6.69639 92.2355 4.59103 88.6509 3.28377C84.4892 1.71063 80.0894 0.859652 75.6413 0.767513C69.9663 0.446289 68.146 0.446289 53.5838 0.446289C39.0216 0.446289 37.2014 0.446289 31.5264 0.767513C27.0783 0.859652 22.6785 1.71063 18.5168 3.28377C14.9388 4.60427 11.7011 6.70782 9.04068 9.44058C6.29649 12.0916 4.19113 15.3321 2.88387 18.9167C1.31073 23.0784 0.459749 27.4782 0.367611 31.9263C0.0463864 37.6013 0.0463867 39.4216 0.0463867 53.9837C0.0463867 68.5459 0.0463864 70.3662 0.367611 76.0412C0.459749 80.4893 1.31073 84.8891 2.88387 89.0508C4.19113 92.6354 6.29649 95.8758 9.04068 98.5269C11.7011 101.26 14.9388 103.363 18.5168 104.684C22.6785 106.257 27.0783 107.108 31.5264 107.2C37.2014 107.521 39.0216 107.521 53.5838 107.521C68.146 107.521 69.9663 107.521 75.6413 107.2C80.0894 107.108 84.4892 106.257 88.6509 104.684C92.2355 103.376 95.4759 101.271 98.127 98.5269C100.869 95.8638 102.99 92.6281 104.337 89.0508C105.864 84.878 106.696 80.4832 106.8 76.0412C106.8 70.3662 107.121 68.5459 107.121 53.9837C107.121 39.4216 107.121 37.6013 106.8 31.9263ZM97.1633 75.3987C97.1243 78.7971 96.5088 82.1643 95.343 85.3567C94.4882 87.6866 93.1152 89.7919 91.3277 91.5135C89.5912 93.2829 87.4903 94.6531 85.1709 95.5288C81.9785 96.6946 78.6114 97.3101 75.213 97.3491C69.8592 97.6168 67.8783 97.6703 53.798 97.6703C39.7176 97.6703 37.7368 97.6703 32.383 97.3491C28.8543 97.4151 25.3407 96.8718 21.9967 95.7429C19.7791 94.8225 17.7745 93.4558 16.1076 91.7276C14.3307 90.0077 12.9748 87.9007 12.1459 85.5708C10.8388 82.3326 10.1138 78.8891 10.0044 75.3987C10.0044 70.045 9.68313 68.0641 9.68313 53.9837C9.68313 39.9034 9.68313 37.9225 10.0044 32.5688C10.0283 29.0945 10.6626 25.6514 11.8782 22.3966C12.8207 20.1369 14.2674 18.1225 16.1076 16.5075C17.7342 14.6667 19.7444 13.2048 21.9967 12.2245C25.2601 11.0469 28.6996 10.4314 32.1689 10.4043C37.5226 10.4043 39.5035 10.083 53.5838 10.083C67.6642 10.083 69.6451 10.083 74.9988 10.4043C78.3972 10.4432 81.7644 11.0587 84.9568 12.2245C87.3897 13.1274 89.5733 14.5954 91.3277 16.5075C93.0822 18.1521 94.453 20.1627 95.343 22.3966C96.5329 25.6567 97.1488 29.0984 97.1633 32.5688C97.431 37.9225 97.4846 39.9034 97.4846 53.9837C97.4846 68.0641 97.431 70.045 97.1633 75.3987ZM53.5838 26.519C48.1541 26.5296 42.8494 28.1494 38.3399 31.1737C33.8304 34.198 30.3185 38.4911 28.248 43.5105C26.1774 48.5299 25.6412 54.0505 26.7069 59.3746C27.7727 64.6987 30.3927 69.5874 34.2358 73.4231C38.0789 77.2587 42.9728 79.8692 48.2989 80.9246C53.6251 81.98 59.1446 81.433 64.16 79.3527C69.1754 77.2724 73.4616 73.7521 76.4771 69.2367C79.4926 64.7214 81.1021 59.4135 81.1021 53.9837C81.1092 50.3705 80.4018 46.7916 79.0208 43.4527C77.6397 40.1138 75.6121 37.0809 73.0547 34.5285C70.4973 31.9761 67.4605 29.9544 64.1189 28.5798C60.7774 27.2053 57.197 26.5049 53.5838 26.519ZM53.5838 71.8117C50.0578 71.8117 46.6109 70.7661 43.6791 68.8072C40.7474 66.8482 38.4623 64.0638 37.1129 60.8062C35.7636 57.5486 35.4105 53.964 36.0984 50.5057C36.7863 47.0474 38.4843 43.8707 40.9776 41.3775C43.4708 38.8842 46.6475 37.1862 50.1058 36.4983C53.5641 35.8104 57.1487 36.1635 60.4063 37.5128C63.6639 38.8622 66.4483 41.1473 68.4073 44.079C70.3662 47.0108 71.4118 50.4577 71.4118 53.9837C71.4118 56.3249 70.9507 58.6432 70.0547 60.8062C69.1588 62.9692 67.8456 64.9345 66.1901 66.59C64.5346 68.2455 62.5693 69.5587 60.4063 70.4546C58.2433 71.3506 55.925 71.8117 53.5838 71.8117Z" fill="white"/>
</svg>
