<svg width="117" height="118" viewBox="0 0 117 118" fill="none" xmlns="http://www.w3.org/2000/svg">
<path d="M58.5417 112.81C51.4732 112.81 44.474 111.417 37.9435 108.712C31.4131 106.007 25.4794 102.043 20.4812 97.0444C15.4831 92.0462 11.5183 86.1125 8.8133 79.5821C6.10831 73.0516 4.71606 66.0524 4.71606 58.9839C4.71606 51.9154 6.10831 44.9161 8.8133 38.3857C11.5183 31.8552 15.4831 25.9215 20.4812 20.9234C25.4794 15.9252 31.4131 11.9604 37.9435 9.25544C44.474 6.55044 51.4732 5.1582 58.5417 5.1582C72.8172 5.1582 86.5079 10.8291 96.6022 20.9234C106.696 31.0176 112.367 44.7084 112.367 58.9839C112.367 73.2593 106.696 86.9501 96.6022 97.0444C86.5079 107.139 72.8172 112.81 58.5417 112.81ZM58.5417 112.81V51.2945C58.5417 47.2158 60.162 43.3041 63.0461 40.4201C65.9301 37.536 69.8418 35.9157 73.9205 35.9157H77.7652M39.3183 66.6732H77.7652" stroke="white" stroke-width="8.49879"/>
</svg>
