<svg width="98" height="98" viewBox="0 0 98 98" fill="none" xmlns="http://www.w3.org/2000/svg">
<path d="M33.6875 64.3125H27.5625V58.1875C27.5649 55.7516 28.5337 53.4161 30.2561 51.6936C31.9786 49.9712 34.3141 49.0024 36.75 49H55.125V55.125H36.75C35.938 55.1258 35.1595 55.4487 34.5854 56.0229C34.0112 56.597 33.6883 57.3755 33.6875 58.1875V64.3125ZM45.9375 45.9375C43.5147 45.9375 41.1463 45.2191 39.1318 43.873C37.1173 42.527 35.5471 40.6138 34.62 38.3754C33.6928 36.137 33.4502 33.6739 33.9229 31.2976C34.3955 28.9214 35.5622 26.7386 37.2754 25.0254C38.9886 23.3123 41.1714 22.1456 43.5476 21.6729C45.9239 21.2002 48.387 21.4428 50.6254 22.37C52.8638 23.2972 54.777 24.8673 56.123 26.8818C57.469 28.8963 58.1875 31.2647 58.1875 33.6875C58.1834 36.9352 56.8915 40.0486 54.5951 42.3451C52.2986 44.6415 49.1852 45.9335 45.9375 45.9375ZM45.9375 27.5625C44.7261 27.5625 43.5419 27.9217 42.5346 28.5948C41.5274 29.2678 40.7423 30.2244 40.2787 31.3436C39.8152 32.4628 39.6939 33.6943 39.9302 34.8824C40.1665 36.0706 40.7499 37.1619 41.6065 38.0185C42.4631 38.8751 43.5544 39.4585 44.7426 39.6948C45.9307 39.9312 47.1622 39.8099 48.2814 39.3463C49.4006 38.8827 50.3572 38.0976 51.0303 37.0904C51.7033 36.0831 52.0625 34.8989 52.0625 33.6875C52.0609 32.0636 51.415 30.5066 50.2667 29.3583C49.1184 28.21 47.5615 27.5641 45.9375 27.5625ZM73.5 67.375C71.0772 67.375 68.7088 66.6566 66.6943 65.3105C64.6798 63.9645 63.1096 62.0513 62.1825 59.8129C61.2553 57.5745 61.0127 55.1114 61.4854 52.7351C61.958 50.3589 63.1248 48.1761 64.8379 46.4629C66.5511 44.7498 68.7339 43.5831 71.1101 43.1104C73.4864 42.6377 75.9495 42.8803 78.1879 43.8075C80.4263 44.7347 82.3395 46.3048 83.6855 48.3193C85.0315 50.3338 85.75 52.7022 85.75 55.125C85.7459 58.3727 84.454 61.4861 82.1576 63.7826C79.8611 66.079 76.7477 67.371 73.5 67.375ZM73.5 49C72.2886 49 71.1044 49.3592 70.0971 50.0323C69.0899 50.7053 68.3048 51.6619 67.8412 52.7811C67.3777 53.9003 67.2564 55.1318 67.4927 56.3199C67.729 57.5081 68.3124 58.5994 69.169 59.456C70.0256 60.3126 71.1169 60.896 72.3051 61.1323C73.4932 61.3687 74.7247 61.2474 75.8439 60.7838C76.9631 60.3202 77.9197 59.5351 78.5928 58.5279C79.2658 57.5206 79.625 56.3364 79.625 55.125C79.6234 53.5011 78.9776 51.9441 77.8292 50.7958C76.6809 49.6475 75.124 49.0016 73.5 49ZM91.875 85.75H85.75V79.625C85.7492 78.813 85.4263 78.0345 84.8521 77.4604C84.278 76.8862 83.4995 76.5633 82.6875 76.5625H64.3125C63.5005 76.5633 62.722 76.8862 62.1479 77.4604C61.5737 78.0345 61.2508 78.813 61.25 79.625V85.75H55.125V79.625C55.1274 77.1891 56.0962 74.8536 57.8186 73.1311C59.5411 71.4087 61.8766 70.4399 64.3125 70.4375H82.6875C85.1234 70.4399 87.4589 71.4087 89.1814 73.1311C90.9038 74.8536 91.8726 77.1891 91.875 79.625V85.75Z" fill="white"/>
<path d="M42.875 84.9323L26.8459 76.3879C22.4334 74.0409 18.7435 70.5365 16.172 66.2509C13.6006 61.9653 12.2447 57.0604 12.25 52.0625V12.25H73.5V30.625H79.625V12.25C79.6234 10.626 78.9776 9.06907 77.8293 7.92076C76.681 6.77245 75.124 6.12662 73.5 6.125H12.25C10.6261 6.12662 9.06909 6.77245 7.92078 7.92076C6.77247 9.06907 6.12664 10.626 6.12502 12.25V52.0625C6.1182 58.1702 7.77485 64.1644 10.9172 69.4018C14.0595 74.6391 18.5688 78.9218 23.961 81.7902L42.875 91.875V84.9323Z" fill="white"/>
</svg>
