<svg width="98" height="99" viewBox="0 0 98 99" fill="none" xmlns="http://www.w3.org/2000/svg">
<path d="M54.7531 10.6676C51.0633 9.17166 46.936 9.17166 43.2462 10.6676L12.6294 23.081C11.3106 23.6152 10.1813 24.5309 9.38619 25.7108C8.59106 26.8908 8.1663 28.2813 8.16631 29.7041V47.777C10.0691 46.8051 12.1271 46.0946 14.2913 45.6945V32.0561L45.9371 44.3633V85.2456L46.9049 86.2175C47.791 87.0995 48.3953 88.1571 48.7179 89.28C50.7848 89.3169 52.8378 88.9349 54.7531 88.1571L85.3699 75.7437C86.6893 75.2093 87.8191 74.2929 88.6142 73.1122C89.4094 71.9314 89.8338 70.54 89.833 69.1165V29.7082C89.833 28.2854 89.4082 26.8949 88.6131 25.7149C87.818 24.535 86.6887 23.6192 85.3699 23.0851L54.7531 10.6676ZM45.5492 16.3435C47.7621 15.4468 50.2372 15.4468 52.4501 16.3435L79.3674 27.2541L68.4649 31.4641L37.7337 19.5121L45.5492 16.3435ZM29.4609 22.8686L59.9879 34.743L49.0037 38.9815L18.7462 27.2133L29.4609 22.8686ZM83.071 70.072L52.4501 82.4853L52.0621 82.6282V44.3674L83.708 32.1501V69.1206C83.7083 69.324 83.6478 69.5228 83.5343 69.6916C83.4208 69.8604 83.2595 69.9955 83.071 70.072ZM18.3746 86.1603C22.1897 86.1604 25.9102 84.973 29.0199 82.763L39.6896 93.4286C39.97 93.7295 40.3081 93.9709 40.6838 94.1382C41.0594 94.3056 41.465 94.3956 41.8762 94.4029C42.2874 94.4101 42.6958 94.3345 43.0772 94.1805C43.4585 94.0264 43.8049 93.7972 44.0957 93.5064C44.3865 93.2156 44.6158 92.8692 44.7698 92.4878C44.9238 92.1065 44.9995 91.698 44.9922 91.2868C44.985 90.8756 44.895 90.4701 44.7276 90.0944C44.5602 89.7188 44.3189 89.3807 44.018 89.1003L33.3523 78.4305C35.7387 75.0731 36.9277 71.0111 36.7285 66.8968C36.5293 62.7824 34.9535 58.8543 32.254 55.7431C29.5544 52.6318 25.8878 50.5178 21.8426 49.7405C17.7975 48.9631 13.6085 49.5675 9.94802 51.4566C6.28758 53.3457 3.36804 56.4099 1.65808 60.1574C-0.0518798 63.9049 -0.453085 68.1182 0.518872 72.1211C1.49083 76.1239 3.77957 79.6841 7.01769 82.2301C10.2558 84.7761 14.2555 86.1602 18.3746 86.1603ZM18.3746 80.0353C15.1257 80.0353 12.0099 78.7447 9.71258 76.4474C7.41526 74.15 6.12464 71.0342 6.12464 67.7853C6.12464 64.5364 7.41526 61.4206 9.71258 59.1232C12.0099 56.8259 15.1257 55.5353 18.3746 55.5353C21.6235 55.5353 24.7394 56.8259 27.0367 59.1232C29.334 61.4206 30.6246 64.5364 30.6246 67.7853C30.6246 71.0342 29.334 74.15 27.0367 76.4474C24.7394 78.7447 21.6235 80.0353 18.3746 80.0353Z" fill="white"/>
</svg>
