<svg width="90" height="84" viewBox="0 0 90 84" fill="none" xmlns="http://www.w3.org/2000/svg">
<path d="M46.2363 74.4084C49.3521 74.1936 52.4419 73.6966 55.4679 72.9236C59.1996 74.0478 63.139 74.304 66.9849 73.6724L67.4368 73.6337C68.8119 73.6337 70.613 74.4213 73.2469 76.0804V73.3497C73.2458 72.8752 73.3723 72.4091 73.613 72.0002C73.8538 71.5914 74.2001 71.2548 74.6156 71.0256C75.7604 70.3886 76.8191 69.6635 77.7918 68.85C81.6135 65.6545 83.7762 61.3872 83.7762 56.8682C83.7762 55.3834 83.5373 53.8986 83.0725 52.4784C84.2271 50.3535 85.1574 48.1142 85.8485 45.7967C88.0628 49.0633 89.2506 52.9238 89.27 56.8747C89.27 63.0076 86.3714 68.7338 81.3618 72.9171C80.5268 73.6143 79.6489 74.2599 78.7278 74.8538V81.2321C78.7278 83.427 76.1649 84.6859 74.3509 83.3818C72.638 82.1165 70.8691 80.9373 69.0443 79.8441C68.5197 79.5348 67.9739 79.263 67.411 79.0307C65.8867 79.2523 64.3484 79.3645 62.8081 79.3664C56.9123 79.4105 51.1391 77.6833 46.2363 74.4084ZM13.183 61.6455C5.28771 55.0413 0.72998 46.0356 0.72998 36.3843C0.72998 16.6685 19.5806 0.910156 42.5952 0.910156C65.6098 0.910156 84.4605 16.6621 84.4605 36.3843C84.4605 56.1 65.6098 71.8584 42.5952 71.8584C40.0338 71.8626 37.476 71.6661 34.9452 71.2709C33.8607 71.5162 29.5224 74.0598 23.2798 78.5659C21.0203 80.1992 17.8118 78.6175 17.8118 75.8738V64.9831C16.1911 63.9856 14.6397 62.87 13.183 61.6455ZM35.1002 64.5505C35.2938 64.5505 35.4875 64.5677 35.6812 64.6022C37.9407 64.9766 40.2475 65.1638 42.6017 65.1638C62.0398 65.1638 77.6046 52.1556 77.6046 36.3843C77.6046 20.613 62.0398 7.61118 42.5952 7.61118C23.1636 7.61118 7.5924 20.6194 7.5924 36.3907C7.5924 44.0149 11.227 51.2001 17.6568 56.5713C19.2751 57.927 21.0396 59.1385 22.9505 60.2058C23.469 60.4945 23.9016 60.9155 24.2044 61.4258C24.5072 61.9361 24.6693 62.5175 24.6742 63.1109V69.3859C29.6128 66.1128 32.86 64.5634 35.0937 64.5634" fill="white"/>
<path d="M27.4866 42.4076C28.954 42.4076 30.3612 41.8247 31.3987 40.7872C32.4363 39.7496 33.0192 38.3424 33.0192 36.8751C33.0192 35.4077 32.4363 34.0005 31.3987 32.963C30.3612 31.9254 28.954 31.3425 27.4866 31.3425C26.0193 31.3425 24.6121 31.9254 23.5745 32.963C22.537 34.0005 21.9541 35.4077 21.9541 36.8751C21.9541 38.3424 22.537 39.7496 23.5745 40.7872C24.6121 41.8247 26.0193 42.4076 27.4866 42.4076ZM45.4722 42.4076C46.9396 42.4076 48.3468 41.8247 49.3843 40.7872C50.4219 39.7496 51.0048 38.3424 51.0048 36.8751C51.0048 35.4077 50.4219 34.0005 49.3843 32.963C48.3468 31.9254 46.9396 31.3425 45.4722 31.3425C44.0049 31.3425 42.5977 31.9254 41.5602 32.963C40.5226 34.0005 39.9397 35.4077 39.9397 36.8751C39.9397 38.3424 40.5226 39.7496 41.5602 40.7872C42.5977 41.8247 44.0049 42.4076 45.4722 42.4076ZM63.4578 42.4141C64.9252 42.4141 66.3324 41.8312 67.37 40.7936C68.4075 39.7561 68.9904 38.3488 68.9904 36.8815C68.9904 35.4142 68.4075 34.007 67.37 32.9694C66.3324 31.9319 64.9252 31.349 63.4578 31.349C61.9905 31.349 60.5833 31.9319 59.5458 32.9694C58.5082 34.007 57.9253 35.4142 57.9253 36.8815C57.9253 38.3488 58.5082 39.7561 59.5458 40.7936C60.5833 41.8312 61.9905 42.4141 63.4578 42.4141Z" fill="white"/>
</svg>
