<svg width="98" height="99" viewBox="0 0 98 99" fill="none" xmlns="http://www.w3.org/2000/svg">
<path d="M91.875 52.5625V77.0625C91.875 78.6869 91.2297 80.2448 90.081 81.3935C88.9324 82.5421 87.3745 83.1875 85.75 83.1875H12.25C10.6255 83.1875 9.06763 82.5421 7.91897 81.3935C6.77031 80.2448 6.125 78.6869 6.125 77.0625V52.5625C6.125 50.938 6.77031 49.3801 7.91897 48.2314C9.06763 47.0828 10.6255 46.4375 12.25 46.4375H30.625C31.4372 46.4375 32.2162 46.7601 32.7905 47.3344C33.3648 47.9088 33.6875 48.6877 33.6875 49.5C33.6875 50.3122 33.3648 51.0912 32.7905 51.6655C32.2162 52.2398 31.4372 52.5625 30.625 52.5625H12.25V77.0625H85.75V52.5625H67.375C66.5628 52.5625 65.7838 52.2398 65.2095 51.6655C64.6352 51.0912 64.3125 50.3122 64.3125 49.5C64.3125 48.6877 64.6352 47.9088 65.2095 47.3344C65.7838 46.7601 66.5628 46.4375 67.375 46.4375H85.75C87.3745 46.4375 88.9324 47.0828 90.081 48.2314C91.2297 49.3801 91.875 50.938 91.875 52.5625ZM32.7917 30.2292L45.9375 17.0796V49.5C45.9375 50.3122 46.2602 51.0912 46.8345 51.6655C47.4088 52.2398 48.1878 52.5625 49 52.5625C49.8122 52.5625 50.5912 52.2398 51.1655 51.6655C51.7398 51.0912 52.0625 50.3122 52.0625 49.5V17.0796L65.2083 30.2292C65.7829 30.8038 66.5623 31.1267 67.375 31.1267C68.1877 31.1267 68.9671 30.8038 69.5417 30.2292C70.1164 29.6545 70.4392 28.8751 70.4392 28.0625C70.4392 27.2498 70.1164 26.4704 69.5417 25.8957L51.1667 7.52075C50.8823 7.23601 50.5445 7.01012 50.1728 6.856C49.801 6.70189 49.4025 6.62256 49 6.62256C48.5975 6.62256 48.199 6.70189 47.8272 6.856C47.4555 7.01012 47.1177 7.23601 46.8333 7.52075L28.4583 25.8957C27.8836 26.4704 27.5608 27.2498 27.5608 28.0625C27.5608 28.8751 27.8836 29.6545 28.4583 30.2292C29.0329 30.8038 29.8123 31.1267 30.625 31.1267C31.4377 31.1267 32.2171 30.8038 32.7917 30.2292ZM76.5625 64.8125C76.5625 63.9039 76.2931 63.0158 75.7883 62.2603C75.2835 61.5049 74.5661 60.9161 73.7267 60.5684C72.8873 60.2207 71.9637 60.1297 71.0726 60.307C70.1815 60.4842 69.3629 60.9217 68.7205 61.5642C68.078 62.2066 67.6405 63.0252 67.4633 63.9163C67.286 64.8074 67.377 65.731 67.7247 66.5704C68.0724 67.4098 68.6612 68.1273 69.4166 68.632C70.172 69.1368 71.0602 69.4062 71.9688 69.4062C73.1871 69.4062 74.3555 68.9222 75.217 68.0607C76.0785 67.1992 76.5625 66.0308 76.5625 64.8125Z" fill="white"/>
</svg>
