<svg width="764" height="107" viewBox="0 0 764 107" fill="none" xmlns="http://www.w3.org/2000/svg">
<g filter="url(#filter0_d_175_1484)">
<path d="M742.5 21C742.167 28 729.2 42 680 42C630.8 42 259.5 42 80 42C65.5 42 37 52.3 37 69.5" stroke="black" stroke-width="3"/>
<path d="M742.5 21C742.167 28 729.2 42 680 42C630.8 42 259.5 42 80 42C65.5 42 37 52.3 37 69.5" stroke="#B009FF" stroke-width="3"/>
<path d="M54 69.5L20 69.5L37 86.5L54 69.5Z" fill="white"/>
<path d="M54 69.5L20 69.5L37 86.5L54 69.5Z" fill="#B009FF"/>
</g>
<defs>
<filter id="filter0_d_175_1484" x="0" y="0.928711" width="763.998" height="105.571" filterUnits="userSpaceOnUse" color-interpolation-filters="sRGB">
<feFlood flood-opacity="0" result="BackgroundImageFix"/>
<feColorMatrix in="SourceAlpha" type="matrix" values="0 0 0 0 0 0 0 0 0 0 0 0 0 0 0 0 0 0 127 0" result="hardAlpha"/>
<feOffset/>
<feGaussianBlur stdDeviation="10"/>
<feComposite in2="hardAlpha" operator="out"/>
<feColorMatrix type="matrix" values="0 0 0 0 0.56 0 0 0 0 0 0 0 0 0 1 0 0 0 1 0"/>
<feBlend mode="normal" in2="BackgroundImageFix" result="effect1_dropShadow_175_1484"/>
<feBlend mode="normal" in="SourceGraphic" in2="effect1_dropShadow_175_1484" result="shape"/>
</filter>
</defs>
</svg>
