<svg width="135" height="108" viewBox="0 0 135 108" fill="none" xmlns="http://www.w3.org/2000/svg">
<path d="M86.2014 45.8076L61.7204 31.7117C60.283 30.8841 58.6533 30.4492 56.9948 30.4504C55.3362 30.4516 53.7071 30.889 52.271 31.7186C50.8349 32.5483 49.6422 33.741 48.8125 35.1771C47.9829 36.6133 47.5456 38.2424 47.5444 39.9009V68.0794C47.5244 71.4566 49.3264 74.5801 52.2564 76.2486C53.6929 77.0878 55.3262 77.5312 56.9899 77.5335C58.6536 77.5359 60.2882 77.0971 61.7271 76.262L86.2014 62.1661C87.6391 61.3395 88.8335 60.1485 89.664 58.713C90.4945 57.2776 90.9318 55.6485 90.9318 53.9902C90.9318 52.3318 90.4945 50.7027 89.664 49.2673C88.8335 47.8318 87.6391 46.6408 86.2014 45.8143M82.8643 56.3728L58.3966 70.4754C57.9727 70.7242 57.49 70.8553 56.9984 70.8553C56.5068 70.8553 56.0241 70.7242 55.6001 70.4754C55.1749 70.2348 54.8222 69.8841 54.5791 69.4601C54.336 69.0362 54.2115 68.5547 54.2186 68.0661V39.9009C54.2139 39.4145 54.3396 38.9358 54.5825 38.5144C54.8255 38.0931 55.1769 37.7445 55.6001 37.5049C56.0205 37.2491 56.503 37.1138 56.9951 37.1138C57.4871 37.1138 57.9697 37.2491 58.39 37.5049L82.8643 51.6075C83.2864 51.8458 83.6375 52.1921 83.8819 52.6107C84.1263 53.0294 84.255 53.5054 84.255 53.9902C84.255 54.4749 84.1263 54.951 83.8819 55.3696C83.6375 55.7882 83.2864 56.1345 82.8643 56.3728ZM114.286 0.589844H20.8476C15.5389 0.595145 10.4491 2.70637 6.69529 6.46019C2.94147 10.214 0.830252 15.3038 0.824951 20.6125V87.3545C0.830252 92.6632 2.94147 97.753 6.69529 101.507C10.4491 105.261 15.5389 107.372 20.8476 107.377H114.286C119.595 107.372 124.685 105.261 128.439 101.507C132.193 97.753 134.304 92.6632 134.309 87.3545V20.6125C134.304 15.3038 132.193 10.214 128.439 6.46019C124.685 2.70637 119.595 0.595145 114.286 0.589844ZM127.635 87.3545C127.63 90.8931 126.222 94.2853 123.719 96.7874C121.217 99.2896 117.825 100.698 114.286 100.703H20.8476C17.309 100.698 13.9168 99.2896 11.4147 96.7874C8.9125 94.2853 7.50445 90.8931 7.49916 87.3545V20.6125C7.50445 17.0739 8.9125 13.6817 11.4147 11.1796C13.9168 8.67739 17.309 7.26934 20.8476 7.26405H114.286C117.825 7.26934 121.217 8.67739 123.719 11.1796C126.222 13.6817 127.63 17.0739 127.635 20.6125V87.3545Z" fill="white"/>
</svg>
