<svg width="36" height="36" viewBox="0 0 36 36" fill="none" xmlns="http://www.w3.org/2000/svg">
<path d="M35.6832 21.883C35.5444 21.7444 35.3705 21.6462 35.1802 21.5989C34.9899 21.5517 34.7903 21.5571 34.6028 21.6147C31.7938 22.4637 28.807 22.5346 25.9609 21.82C23.1147 21.1053 20.5158 19.6318 18.441 17.5565C16.3663 15.4813 14.8935 12.8819 14.1796 10.0356C13.4657 7.18922 13.5374 4.20251 14.3872 1.39372C14.444 1.20642 14.4488 1.00721 14.4011 0.817378C14.3535 0.627547 14.2552 0.454224 14.1167 0.315923C13.9782 0.177622 13.8048 0.0795378 13.6149 0.0321482C13.425 -0.0152415 13.2258 -0.0101563 13.0385 0.0468601C9.31404 1.18952 6.0446 3.4773 3.69509 6.5849C1.03171 10.1215 -0.264534 14.5011 0.0449536 18.9176C0.354441 23.334 2.24883 27.49 5.37941 30.6206C8.50999 33.7512 12.666 35.6456 17.0825 35.955C21.499 36.2645 25.8786 34.9683 29.4152 32.3049C32.5228 29.9554 34.8106 26.686 35.9533 22.9615C36.0103 22.7741 36.0152 22.5748 35.9676 22.3848C35.9201 22.1948 35.8217 22.0214 35.6832 21.883ZM28.1206 30.5781C24.9998 32.9187 21.1395 34.055 17.2484 33.7785C13.3573 33.5019 9.69646 31.8311 6.93808 29.0727C4.1797 26.3144 2.50887 22.6536 2.23233 18.7625C1.9558 14.8714 3.09212 11.0111 5.43269 7.89035C7.0998 5.67995 9.30036 3.92855 11.8285 2.8C11.2963 5.72353 11.4809 8.73252 12.3666 11.569C13.2523 14.4055 14.8126 16.985 16.9139 19.0862C19.0151 21.1874 21.5945 22.7478 24.4311 23.6335C27.2676 24.5192 30.2766 24.7038 33.2001 24.1715C32.0746 26.703 30.325 28.9074 28.1152 30.5781H28.1206Z" fill="white"/>
</svg>
