<svg width="185" height="64" viewBox="0 0 185 64" fill="none" xmlns="http://www.w3.org/2000/svg">
<g clip-path="url(#clip0_175_1516)">
<path fill-rule="evenodd" clip-rule="evenodd" d="M2.1274 14.3473L28.82 14.3715L19.2982 63.9323L12.9099 63.9142L20.4013 24.8086L19.6497 23.7176L0 23.6388L2.1274 14.3473Z" fill="white"/>
<path fill-rule="evenodd" clip-rule="evenodd" d="M24.6678 52.4832L34.2381 3.06183L60.8822 3.1225L58.7609 12.22L39.9112 12.4322L38.699 13.1898L31.0379 52.6408H24.6375L24.6678 52.4832Z" fill="#EE0000"/>
<path fill-rule="evenodd" clip-rule="evenodd" d="M24.662 52.5437L31.0624 52.5377L28.7895 63.993L22.4133 63.9566L24.662 52.5437Z" fill="white"/>
<path fill-rule="evenodd" clip-rule="evenodd" d="M69.2886 28.3483L61.8093 63.5324H69.8098L72.6767 50.0588H74.0283C75.3011 50.0588 76.3133 50.4346 77.0467 51.1922C77.7861 51.9256 78.2952 53.0166 78.5922 54.4773L80.5075 63.5324H88.9929L86.5382 53.3742C86.269 52.0534 85.7169 50.8065 84.9199 49.7194C84.2667 48.8527 83.3667 48.2041 82.3379 47.8587C82.3197 47.8587 82.2773 47.8526 82.2894 47.8162V47.798C82.2894 47.7798 82.3076 47.7617 82.3258 47.7557H82.3379C83.7562 47.5556 85.0896 47.1798 86.326 46.6222C87.5867 46.0646 88.6838 45.3494 89.6111 44.4645C90.5461 43.5792 91.2977 42.5186 91.8234 41.3431C92.3628 40.1309 92.6355 38.7853 92.6355 37.3004C92.6355 36.1064 92.4295 34.9669 92.0173 33.888C91.5997 32.7952 90.9263 31.8184 90.0535 31.0394C89.0386 30.1415 87.8415 29.4737 86.5443 29.0817C84.8545 28.5527 83.0898 28.303 81.3197 28.3423L69.2886 28.3483ZM119.049 28.3483L111.619 63.5324H119.613L127.05 28.3483H119.049ZM152.615 28.3483L145.178 63.5324H152.615L157.1 42.525C157.282 41.7916 157.422 41.0461 157.525 40.2945C157.615 39.543 157.706 38.8642 157.791 38.2581H157.937C157.994 38.4851 158.067 38.7078 158.155 38.9248L158.476 39.7126L158.822 40.4885C158.937 40.7552 159.04 40.9855 159.137 41.1794L170.156 63.5324H177.392L184.823 28.3483H177.344L172.877 49.3497L172.707 50.1376L172.562 51.0468C172.468 51.6232 172.402 52.2037 172.362 52.7863H172.265C172.203 52.5497 172.122 52.3185 172.022 52.0953C171.921 51.8267 171.806 51.5637 171.677 51.3074C171.567 51.0408 171.443 50.7799 171.307 50.5255C171.21 50.3046 171.111 50.0844 171.01 49.8648L160.464 28.3483H152.615ZM76.0405 34.2881H79.3498C80.9742 34.2881 82.1803 34.67 82.9864 35.4397C83.7865 36.1913 84.1865 37.2458 84.1865 38.6035C84.1858 39.3258 84.0325 40.0398 83.737 40.6988C83.4414 41.3578 83.0101 41.9471 82.4712 42.428C81.8249 42.9617 81.085 43.3706 80.2893 43.6341C79.2711 43.9489 78.2091 44.0982 77.1436 44.0766H73.9313L76.0405 34.2881Z" fill="white"/>
<path fill-rule="evenodd" clip-rule="evenodd" d="M125.989 0.000976562L126.001 0.0130919V0.00698799L125.989 0.000976562ZM127.819 0.219145V0.261595L127.832 0.23126L127.819 0.219145ZM69.0945 3.01927V12.4745C69.0945 13.2867 69.3794 13.9897 69.9491 14.5716C70.2222 14.8487 70.5491 15.067 70.9098 15.2129C71.2705 15.3589 71.6572 15.4294 72.0462 15.4201H78.7375C79.1227 15.4275 79.5052 15.356 79.8617 15.2101C80.2182 15.0641 80.541 14.8469 80.8104 14.5716C81.0925 14.3006 81.316 13.9748 81.4671 13.6141C81.6183 13.2534 81.6939 12.8656 81.6892 12.4745V3.01927H78.8891V12.4745C78.8891 12.5715 78.8406 12.6199 78.7375 12.6199H72.0462C71.9492 12.6199 71.8947 12.5715 71.8947 12.4745V3.01927H69.0945ZM97.3024 3.01927V15.4262H100.103V5.97097C100.103 5.87399 100.151 5.81948 100.254 5.81948H106.945C107.048 5.81948 107.097 5.86793 107.097 5.97097V15.4262H109.897V5.97097C109.903 5.58334 109.828 5.19884 109.676 4.84193C109.525 4.48502 109.301 4.16356 109.018 3.89814C108.753 3.61559 108.431 3.39153 108.075 3.24021C107.718 3.08889 107.333 3.0136 106.945 3.01927H97.3024ZM125.468 3.01927V15.4262H128.268V3.01927H125.468ZM143.821 3.01927V15.4262H146.621V5.97097C146.621 5.87399 146.669 5.81948 146.772 5.81948H153.464C153.561 5.81948 153.615 5.86793 153.615 5.97097V15.4262H156.415V5.97097C156.421 5.58334 156.346 5.19884 156.194 4.84193C156.043 4.48502 155.819 4.16356 155.536 3.89814C155.271 3.61588 154.949 3.39197 154.592 3.24067C154.236 3.08937 153.851 3.01397 153.464 3.01927H143.821ZM174.489 3.01927C174.098 3.01463 173.71 3.09025 173.35 3.24141C172.989 3.39257 172.663 3.61608 172.392 3.89814C172.117 4.16753 171.899 4.49036 171.754 4.84683C171.608 5.2033 171.536 5.58586 171.543 5.97097V12.4745C171.536 12.8642 171.607 13.2512 171.753 13.6127C171.899 13.9742 172.116 14.3025 172.392 14.5781C172.667 14.8537 172.995 15.0708 173.357 15.2165C173.718 15.3623 174.106 15.4336 174.495 15.4262H181.326V17.3899C181.326 17.4748 181.284 17.5173 181.205 17.5173H173.61V20.3416H181.199C181.586 20.3473 181.971 20.2721 182.328 20.1208C182.685 19.9694 183.006 19.7454 183.271 19.4628C183.549 19.1945 183.769 18.872 183.917 18.5155C184.065 18.159 184.138 17.7759 184.132 17.3899V5.97097C184.138 5.58498 184.065 5.20197 183.917 4.84545C183.769 4.48892 183.549 4.16649 183.271 3.89814C183.006 3.61559 182.685 3.39153 182.328 3.24021C181.971 3.08889 181.586 3.0136 181.199 3.01927H174.489ZM174.489 5.81948H181.199C181.284 5.81948 181.326 5.86793 181.326 5.97097V12.4745C181.326 12.5715 181.284 12.6199 181.205 12.6199H174.489C174.386 12.6199 174.338 12.5715 174.338 12.4745V5.97097C174.338 5.87399 174.386 5.81948 174.489 5.81948Z" fill="#EE0000"/>
</g>
<defs>
<clipPath id="clip0_175_1516">
<rect width="184.83" height="64" fill="white"/>
</clipPath>
</defs>
</svg>
