<svg width="34" height="17" viewBox="0 0 34 17" fill="none" xmlns="http://www.w3.org/2000/svg">
<path fill-rule="evenodd" clip-rule="evenodd" d="M18.7481 15.72C18.2714 16.0979 17.6251 16.3102 16.9511 16.3102C16.2771 16.3102 15.6308 16.0979 15.1541 15.72L0.775941 4.31752C0.533186 4.13159 0.339556 3.90917 0.20635 3.66325C0.0731437 3.41734 0.00302858 3.15285 9.59641e-05 2.88521C-0.00283665 2.61757 0.0614725 2.35216 0.18927 2.10444C0.317067 1.85672 0.505794 1.63167 0.744438 1.44242C0.983082 1.25316 1.26686 1.1035 1.57922 1.00215C1.89159 0.9008 2.22627 0.849801 2.56375 0.852127C2.90123 0.854453 3.23475 0.910057 3.54484 1.01569C3.85494 1.12133 4.1354 1.27489 4.36986 1.4674L16.9511 11.4448L29.5324 1.4674C30.0117 1.10024 30.6537 0.897071 31.3202 0.901664C31.9866 0.906256 32.6241 1.11824 33.0953 1.49196C33.5666 1.86567 33.8339 2.37122 33.8397 2.89972C33.8454 3.42821 33.5893 3.93737 33.1263 4.31752L18.7481 15.72Z" fill="white"/>
</svg>
