<svg width="41" height="40" viewBox="0 0 41 40" fill="none" xmlns="http://www.w3.org/2000/svg">
<path d="M19.8926 6.25V2.5C19.8926 2.25136 19.9914 2.0129 20.1672 1.83709C20.343 1.66127 20.5814 1.5625 20.8301 1.5625C21.0787 1.5625 21.3172 1.66127 21.493 1.83709C21.6688 2.0129 21.7676 2.25136 21.7676 2.5V6.25C21.7676 6.49864 21.6688 6.7371 21.493 6.91291C21.3172 7.08873 21.0787 7.1875 20.8301 7.1875C20.5814 7.1875 20.343 7.08873 20.1672 6.91291C19.9914 6.7371 19.8926 6.49864 19.8926 6.25ZM30.5176 20C30.5176 21.916 29.9494 23.789 28.8849 25.3821C27.8205 26.9752 26.3075 28.2169 24.5373 28.9501C22.7672 29.6833 20.8193 29.8752 18.9401 29.5014C17.061 29.1276 15.3348 28.2049 13.98 26.8501C12.6252 25.4953 11.7025 23.7691 11.3287 21.8899C10.9549 20.0107 11.1468 18.0629 11.88 16.2928C12.6132 14.5226 13.8549 13.0096 15.448 11.9451C17.0411 10.8807 18.9141 10.3125 20.8301 10.3125C23.3985 10.3154 25.8608 11.337 27.677 13.1531C29.4931 14.9692 30.5147 17.4316 30.5176 20ZM28.6426 20C28.6426 18.4548 28.1844 16.9444 27.3259 15.6596C26.4675 14.3748 25.2473 13.3735 23.8198 12.7822C22.3922 12.1909 20.8214 12.0362 19.3059 12.3376C17.7905 12.6391 16.3984 13.3831 15.3058 14.4757C14.2132 15.5683 13.4691 16.9604 13.1677 18.4759C12.8662 19.9913 13.021 21.5622 13.6123 22.9897C14.2036 24.4173 15.2049 25.6374 16.4897 26.4959C17.7744 27.3543 19.2849 27.8125 20.8301 27.8125C22.9013 27.81 24.887 26.9861 26.3516 25.5215C27.8162 24.0569 28.6401 22.0712 28.6426 20ZM10.1676 10.6625C10.2534 10.7546 10.3569 10.8285 10.4719 10.8797C10.5869 10.931 10.711 10.9585 10.8369 10.9607C10.9628 10.963 11.0878 10.9398 11.2046 10.8927C11.3213 10.8455 11.4274 10.7753 11.5164 10.6863C11.6054 10.5973 11.6756 10.4912 11.7227 10.3745C11.7699 10.2578 11.793 10.1327 11.7908 10.0068C11.7886 9.88097 11.761 9.75683 11.7098 9.64183C11.6586 9.52683 11.5847 9.42333 11.4926 9.3375L8.99258 6.8375C8.81486 6.6719 8.5798 6.58175 8.33693 6.58603C8.09405 6.59032 7.86232 6.68871 7.69055 6.86047C7.51878 7.03224 7.42039 7.26397 7.41611 7.50685C7.41182 7.74972 7.50198 7.98478 7.66758 8.1625L10.1676 10.6625ZM10.1676 29.3375L7.66758 31.8375C7.57547 31.9233 7.50159 32.0268 7.45035 32.1418C7.39911 32.2568 7.37156 32.381 7.36934 32.5068C7.36712 32.6327 7.39027 32.7578 7.43742 32.8745C7.48458 32.9912 7.55476 33.0973 7.64378 33.1863C7.7328 33.2753 7.83885 33.3455 7.95558 33.3927C8.07232 33.4398 8.19735 33.463 8.32323 33.4607C8.44911 33.4585 8.57325 33.431 8.68825 33.3797C8.80325 33.3285 8.90675 33.2546 8.99258 33.1625L11.4926 30.6625C11.5847 30.5767 11.6586 30.4732 11.7098 30.3582C11.761 30.2432 11.7886 30.119 11.7908 29.9932C11.793 29.8673 11.7699 29.7422 11.7227 29.6255C11.6756 29.5088 11.6054 29.4027 11.5164 29.3137C11.4274 29.2247 11.3213 29.1545 11.2046 29.1073C11.0878 29.0602 10.9628 29.037 10.8369 29.0393C10.711 29.0415 10.5869 29.069 10.4719 29.1203C10.3569 29.1715 10.2534 29.2454 10.1676 29.3375ZM30.8301 10.9375C31.0786 10.9373 31.3169 10.8384 31.4926 10.6625L33.9926 8.1625C34.1582 7.98478 34.2483 7.74972 34.244 7.50685C34.2398 7.26397 34.1414 7.03224 33.9696 6.86047C33.7978 6.68871 33.5661 6.59032 33.3232 6.58603C33.0804 6.58175 32.8453 6.6719 32.6676 6.8375L30.1676 9.3375C30.0366 9.46861 29.9475 9.63558 29.9114 9.81733C29.8753 9.99908 29.8938 10.1875 29.9647 10.3587C30.0356 10.5299 30.1556 10.6762 30.3097 10.7792C30.4637 10.8823 30.6448 10.9373 30.8301 10.9375ZM31.4926 29.3375C31.3149 29.1719 31.0798 29.0817 30.8369 29.086C30.594 29.0903 30.3623 29.1887 30.1906 29.3605C30.0188 29.5322 29.9204 29.764 29.9161 30.0068C29.9118 30.2497 30.002 30.4848 30.1676 30.6625L32.6676 33.1625C32.8453 33.3281 33.0804 33.4183 33.3232 33.414C33.5661 33.4097 33.7978 33.3113 33.9696 33.1395C34.1414 32.9678 34.2398 32.736 34.244 32.4932C34.2483 32.2503 34.1582 32.0152 33.9926 31.8375L31.4926 29.3375ZM8.01758 20C8.01758 19.7514 7.91881 19.5129 7.74299 19.3371C7.56718 19.1613 7.32872 19.0625 7.08008 19.0625H3.33008C3.08144 19.0625 2.84298 19.1613 2.66717 19.3371C2.49135 19.5129 2.39258 19.7514 2.39258 20C2.39258 20.2486 2.49135 20.4871 2.66717 20.6629C2.84298 20.8387 3.08144 20.9375 3.33008 20.9375H7.08008C7.32872 20.9375 7.56718 20.8387 7.74299 20.6629C7.91881 20.4871 8.01758 20.2486 8.01758 20ZM20.8301 32.8125C20.5814 32.8125 20.343 32.9113 20.1672 33.0871C19.9914 33.2629 19.8926 33.5014 19.8926 33.75V37.5C19.8926 37.7486 19.9914 37.9871 20.1672 38.1629C20.343 38.3387 20.5814 38.4375 20.8301 38.4375C21.0787 38.4375 21.3172 38.3387 21.493 38.1629C21.6688 37.9871 21.7676 37.7486 21.7676 37.5V33.75C21.7676 33.5014 21.6688 33.2629 21.493 33.0871C21.3172 32.9113 21.0787 32.8125 20.8301 32.8125ZM38.3301 19.0625H34.5801C34.3314 19.0625 34.093 19.1613 33.9172 19.3371C33.7414 19.5129 33.6426 19.7514 33.6426 20C33.6426 20.2486 33.7414 20.4871 33.9172 20.6629C34.093 20.8387 34.3314 20.9375 34.5801 20.9375H38.3301C38.5787 20.9375 38.8172 20.8387 38.993 20.6629C39.1688 20.4871 39.2676 20.2486 39.2676 20C39.2676 19.7514 39.1688 19.5129 38.993 19.3371C38.8172 19.1613 38.5787 19.0625 38.3301 19.0625Z" fill="white"/>
</svg>
